<svg xmlns="http://www.w3.org/2000/svg" xmlns:xlink="http://www.w3.org/1999/xlink" contentStyleType="text/css" height="587px" preserveAspectRatio="none" style="width:1526px;height:587px;background:#FFFFFF;" version="1.1" viewBox="0 0 1526 587" width="1526px" zoomAndPan="magnify"><defs/><g><!--class pc--><g id="elem_pc"><rect codeLine="1" fill="#F1F1F1" height="96.8906" id="pc" rx="2.5" ry="2.5" style="stroke:#181818;stroke-width:0.5;" width="232.5547" x="529.99" y="467.45"/><ellipse cx="577.4314" cy="483.45" fill="#ADD1B2" rx="11" ry="11" style="stroke:#181818;stroke-width:1.0;"/><path d="M581.5408,489.45 L573.822,489.45 L573.822,477.0594 L581.5408,477.0594 L581.5408,479.2156 L576.2752,479.2156 L576.2752,481.8875 L581.0408,481.8875 L581.0408,484.0438 L576.2752,484.0438 L576.2752,487.2938 L581.5408,487.2938 L581.5408,489.45 Z " fill="#000000"/><text fill="#000000" font-family="sans-serif" font-size="14" lengthAdjust="spacing" textLength="129.1719" x="597.9314" y="488.2967">ProductCategories</text><line style="stroke:#181818;stroke-width:0.5;" x1="530.99" x2="761.5447" y1="499.45" y2="499.45"/><ellipse cx="540.99" cy="513.0984" fill="#84BE84" rx="3" ry="3" style="stroke:#038048;stroke-width:1.0;"/><text fill="#000000" font-family="sans-serif" font-size="14" lengthAdjust="spacing" textLength="144.1768" x="549.99" y="516.4451">CategoryID: INT (PK)</text><line style="stroke:#181818;stroke-width:1.0;" x1="530.99" x2="761.5447" y1="523.7469" y2="523.7469"/><text fill="#000000" font-family="sans-serif" font-size="14" lengthAdjust="spacing" textLength="220.5547" x="535.99" y="540.742">CategoryName: VARCHAR(255)</text><text fill="#000000" font-family="sans-serif" font-size="14" lengthAdjust="spacing" textLength="124.4414" x="535.99" y="557.0389">Description: TEXT</text></g><!--class s--><g id="elem_s"><rect codeLine="8" fill="#F1F1F1" height="129.4844" id="s" rx="2.5" ry="2.5" style="stroke:#181818;stroke-width:0.5;" width="229.1025" x="27.72" y="451.16"/><ellipse cx="105.5335" cy="467.16" fill="#ADD1B2" rx="11" ry="11" style="stroke:#181818;stroke-width:1.0;"/><path d="M109.6429,473.16 L101.9241,473.16 L101.9241,460.7694 L109.6429,460.7694 L109.6429,462.9256 L104.3772,462.9256 L104.3772,465.5975 L109.1429,465.5975 L109.1429,467.7537 L104.3772,467.7537 L104.3772,471.0037 L109.6429,471.0037 L109.6429,473.16 Z " fill="#000000"/><text fill="#000000" font-family="sans-serif" font-size="14" lengthAdjust="spacing" textLength="64.9756" x="126.0335" y="472.0067">Suppliers</text><line style="stroke:#181818;stroke-width:0.5;" x1="28.72" x2="255.8225" y1="483.16" y2="483.16"/><ellipse cx="38.72" cy="496.8084" fill="#84BE84" rx="3" ry="3" style="stroke:#038048;stroke-width:1.0;"/><text fill="#000000" font-family="sans-serif" font-size="14" lengthAdjust="spacing" textLength="137.9082" x="47.72" y="500.1551">SupplierID: INT (PK)</text><line style="stroke:#181818;stroke-width:1.0;" x1="28.72" x2="255.8225" y1="507.4569" y2="507.4569"/><text fill="#000000" font-family="sans-serif" font-size="14" lengthAdjust="spacing" textLength="214.2861" x="33.72" y="524.452">SupplierName: VARCHAR(255)</text><text fill="#000000" font-family="sans-serif" font-size="14" lengthAdjust="spacing" textLength="217.1025" x="33.72" y="540.7489">ContactNumber: VARCHAR(50)</text><text fill="#000000" font-family="sans-serif" font-size="14" lengthAdjust="spacing" textLength="154.1436" x="33.72" y="557.0457">Email: VARCHAR(255)</text><text fill="#000000" font-family="sans-serif" font-size="14" lengthAdjust="spacing" textLength="101.0146" x="33.72" y="573.3426">Address: TEXT</text></g><!--class p--><g id="elem_p"><rect codeLine="17" fill="#F1F1F1" height="162.0781" id="p" rx="2.5" ry="2.5" style="stroke:#181818;stroke-width:0.5;" width="222.3145" x="345.11" y="229.08"/><ellipse cx="421.5153" cy="245.08" fill="#ADD1B2" rx="11" ry="11" style="stroke:#181818;stroke-width:1.0;"/><path d="M425.6246,251.08 L417.9059,251.08 L417.9059,238.6894 L425.6246,238.6894 L425.6246,240.8456 L420.359,240.8456 L420.359,243.5175 L425.1246,243.5175 L425.1246,245.6737 L420.359,245.6737 L420.359,248.9237 L425.6246,248.9237 L425.6246,251.08 Z " fill="#000000"/><text fill="#000000" font-family="sans-serif" font-size="14" lengthAdjust="spacing" textLength="61.0039" x="442.0153" y="249.9267">Products</text><line style="stroke:#181818;stroke-width:0.5;" x1="346.11" x2="566.4245" y1="261.08" y2="261.08"/><ellipse cx="356.11" cy="274.7284" fill="#84BE84" rx="3" ry="3" style="stroke:#038048;stroke-width:1.0;"/><text fill="#000000" font-family="sans-serif" font-size="14" lengthAdjust="spacing" textLength="133.9365" x="365.11" y="278.0751">ProductID: INT (PK)</text><line style="stroke:#181818;stroke-width:1.0;" x1="346.11" x2="566.4245" y1="285.3769" y2="285.3769"/><text fill="#000000" font-family="sans-serif" font-size="14" lengthAdjust="spacing" textLength="210.3145" x="351.11" y="302.372">ProductName: VARCHAR(255)</text><text fill="#000000" font-family="sans-serif" font-size="14" lengthAdjust="spacing" textLength="143.7871" x="351.11" y="318.6689">CategoryID: INT (FK)</text><text fill="#000000" font-family="sans-serif" font-size="14" lengthAdjust="spacing" textLength="137.5186" x="351.11" y="334.9657">SupplierID: INT (FK)</text><text fill="#000000" font-family="sans-serif" font-size="14" lengthAdjust="spacing" textLength="181.5967" x="351.11" y="351.2626">UnitPrice: DECIMAL(10, 2)</text><text fill="#000000" font-family="sans-serif" font-size="14" lengthAdjust="spacing" textLength="71.0664" x="351.11" y="367.5595">Stock: INT</text><text fill="#000000" font-family="sans-serif" font-size="14" lengthAdjust="spacing" textLength="114.1738" x="351.11" y="383.8564">TypeID: INT (FK)</text></g><!--class pt--><g id="elem_pt"><rect codeLine="28" fill="#F1F1F1" height="96.8906" id="pt" rx="2.5" ry="2.5" style="stroke:#181818;stroke-width:0.5;" width="202.9414" x="291.8" y="467.45"/><ellipse cx="341.3503" cy="483.45" fill="#ADD1B2" rx="11" ry="11" style="stroke:#181818;stroke-width:1.0;"/><path d="M345.4597,489.45 L337.7409,489.45 L337.7409,477.0594 L345.4597,477.0594 L345.4597,479.2156 L340.194,479.2156 L340.194,481.8875 L344.9597,481.8875 L344.9597,484.0438 L340.194,484.0438 L340.194,487.2938 L345.4597,487.2938 L345.4597,489.45 Z " fill="#000000"/><text fill="#000000" font-family="sans-serif" font-size="14" lengthAdjust="spacing" textLength="95.3408" x="361.8503" y="488.2967">ProductTypes</text><line style="stroke:#181818;stroke-width:0.5;" x1="292.8" x2="493.7414" y1="499.45" y2="499.45"/><ellipse cx="302.8" cy="513.0984" fill="#84BE84" rx="3" ry="3" style="stroke:#038048;stroke-width:1.0;"/><text fill="#000000" font-family="sans-serif" font-size="14" lengthAdjust="spacing" textLength="114.5635" x="311.8" y="516.4451">TypeID: INT (PK)</text><line style="stroke:#181818;stroke-width:1.0;" x1="292.8" x2="493.7414" y1="523.7469" y2="523.7469"/><text fill="#000000" font-family="sans-serif" font-size="14" lengthAdjust="spacing" textLength="190.9414" x="297.8" y="540.742">TypeName: VARCHAR(255)</text><text fill="#000000" font-family="sans-serif" font-size="14" lengthAdjust="spacing" textLength="124.4414" x="297.8" y="557.0389">Description: TEXT</text></g><!--class c--><g id="elem_c"><rect codeLine="35" fill="#F1F1F1" height="129.4844" id="c" rx="2.5" ry="2.5" style="stroke:#181818;stroke-width:0.5;" width="236.6084" x="1069.97" y="451.16"/><ellipse cx="1146.3753" cy="467.16" fill="#ADD1B2" rx="11" ry="11" style="stroke:#181818;stroke-width:1.0;"/><path d="M1150.4846,473.16 L1142.7659,473.16 L1142.7659,460.7694 L1150.4846,460.7694 L1150.4846,462.9256 L1145.219,462.9256 L1145.219,465.5975 L1149.9846,465.5975 L1149.9846,467.7537 L1145.219,467.7537 L1145.219,471.0037 L1150.4846,471.0037 L1150.4846,473.16 Z " fill="#000000"/><text fill="#000000" font-family="sans-serif" font-size="14" lengthAdjust="spacing" textLength="75.2979" x="1166.8753" y="472.0067">Customers</text><line style="stroke:#181818;stroke-width:0.5;" x1="1070.97" x2="1305.5784" y1="483.16" y2="483.16"/><ellipse cx="1080.97" cy="496.8084" fill="#84BE84" rx="3" ry="3" style="stroke:#038048;stroke-width:1.0;"/><text fill="#000000" font-family="sans-serif" font-size="14" lengthAdjust="spacing" textLength="148.2305" x="1089.97" y="500.1551">CustomerID: INT (PK)</text><line style="stroke:#181818;stroke-width:1.0;" x1="1070.97" x2="1305.5784" y1="507.4569" y2="507.4569"/><text fill="#000000" font-family="sans-serif" font-size="14" lengthAdjust="spacing" textLength="224.6084" x="1075.97" y="524.452">CustomerName: VARCHAR(255)</text><text fill="#000000" font-family="sans-serif" font-size="14" lengthAdjust="spacing" textLength="217.1025" x="1075.97" y="540.7489">ContactNumber: VARCHAR(50)</text><text fill="#000000" font-family="sans-serif" font-size="14" lengthAdjust="spacing" textLength="154.1436" x="1075.97" y="557.0457">Email: VARCHAR(255)</text><text fill="#000000" font-family="sans-serif" font-size="14" lengthAdjust="spacing" textLength="101.0146" x="1075.97" y="573.3426">Address: TEXT</text></g><!--class e--><g id="elem_e"><rect codeLine="44" fill="#F1F1F1" height="129.4844" id="e" rx="2.5" ry="2.5" style="stroke:#181818;stroke-width:0.5;" width="237.9414" x="797.3" y="451.16"/><ellipse cx="873.7053" cy="467.16" fill="#ADD1B2" rx="11" ry="11" style="stroke:#181818;stroke-width:1.0;"/><path d="M877.8146,473.16 L870.0959,473.16 L870.0959,460.7694 L877.8146,460.7694 L877.8146,462.9256 L872.549,462.9256 L872.549,465.5975 L877.3146,465.5975 L877.3146,467.7537 L872.549,467.7537 L872.549,471.0037 L877.8146,471.0037 L877.8146,473.16 Z " fill="#000000"/><text fill="#000000" font-family="sans-serif" font-size="14" lengthAdjust="spacing" textLength="76.6309" x="894.2053" y="472.0067">Employees</text><line style="stroke:#181818;stroke-width:0.5;" x1="798.3" x2="1034.2414" y1="483.16" y2="483.16"/><ellipse cx="808.3" cy="496.8084" fill="#84BE84" rx="3" ry="3" style="stroke:#038048;stroke-width:1.0;"/><text fill="#000000" font-family="sans-serif" font-size="14" lengthAdjust="spacing" textLength="149.5635" x="817.3" y="500.1551">EmployeeID: INT (PK)</text><line style="stroke:#181818;stroke-width:1.0;" x1="798.3" x2="1034.2414" y1="507.4569" y2="507.4569"/><text fill="#000000" font-family="sans-serif" font-size="14" lengthAdjust="spacing" textLength="225.9414" x="803.3" y="524.452">EmployeeName: VARCHAR(255)</text><text fill="#000000" font-family="sans-serif" font-size="14" lengthAdjust="spacing" textLength="217.1025" x="803.3" y="540.7489">ContactNumber: VARCHAR(50)</text><text fill="#000000" font-family="sans-serif" font-size="14" lengthAdjust="spacing" textLength="154.1436" x="803.3" y="557.0457">Email: VARCHAR(255)</text><text fill="#000000" font-family="sans-serif" font-size="14" lengthAdjust="spacing" textLength="170.3105" x="803.3" y="573.3426">Position: VARCHAR(255)</text></g><!--class o--><g id="elem_o"><rect codeLine="53" fill="#F1F1F1" height="129.4844" id="o" rx="2.5" ry="2.5" style="stroke:#181818;stroke-width:0.5;" width="220.79" x="805.88" y="245.37"/><ellipse cx="888.3624" cy="261.37" fill="#ADD1B2" rx="11" ry="11" style="stroke:#181818;stroke-width:1.0;"/><path d="M892.4718,267.37 L884.753,267.37 L884.753,254.9794 L892.4718,254.9794 L892.4718,257.1356 L887.2062,257.1356 L887.2062,259.8075 L891.9718,259.8075 L891.9718,261.9638 L887.2062,261.9638 L887.2062,265.2138 L892.4718,265.2138 L892.4718,267.37 Z " fill="#000000"/><text fill="#000000" font-family="sans-serif" font-size="14" lengthAdjust="spacing" textLength="47.3252" x="908.8624" y="266.2167">Orders</text><line style="stroke:#181818;stroke-width:0.5;" x1="806.88" x2="1025.67" y1="277.37" y2="277.37"/><ellipse cx="816.88" cy="291.0184" fill="#84BE84" rx="3" ry="3" style="stroke:#038048;stroke-width:1.0;"/><text fill="#000000" font-family="sans-serif" font-size="14" lengthAdjust="spacing" textLength="120.2578" x="825.88" y="294.3651">OrderID: INT (PK)</text><line style="stroke:#181818;stroke-width:1.0;" x1="806.88" x2="1025.67" y1="301.6669" y2="301.6669"/><text fill="#000000" font-family="sans-serif" font-size="14" lengthAdjust="spacing" textLength="147.8408" x="811.88" y="318.662">CustomerID: INT (FK)</text><text fill="#000000" font-family="sans-serif" font-size="14" lengthAdjust="spacing" textLength="149.1738" x="811.88" y="334.9589">EmployeeID: INT (FK)</text><text fill="#000000" font-family="sans-serif" font-size="14" lengthAdjust="spacing" textLength="120.415" x="811.88" y="351.2557">OrderDate: DATE</text><text fill="#000000" font-family="sans-serif" font-size="14" lengthAdjust="spacing" textLength="208.79" x="811.88" y="367.5526">TotalAmount: DECIMAL(10, 2)</text></g><!--class od--><g id="elem_od"><rect codeLine="62" fill="#F1F1F1" height="145.7813" id="od" rx="2.5" ry="2.5" style="stroke:#181818;stroke-width:0.5;" width="200.1729" x="694.19" y="15.15"/><ellipse cx="745.7432" cy="31.15" fill="#ADD1B2" rx="11" ry="11" style="stroke:#181818;stroke-width:1.0;"/><path d="M749.8526,37.15 L742.1338,37.15 L742.1338,24.7594 L749.8526,24.7594 L749.8526,26.9156 L744.587,26.9156 L744.587,29.5875 L749.3526,29.5875 L749.3526,31.7437 L744.587,31.7437 L744.587,34.9937 L749.8526,34.9937 L749.8526,37.15 Z " fill="#000000"/><text fill="#000000" font-family="sans-serif" font-size="14" lengthAdjust="spacing" textLength="88.5664" x="766.2432" y="35.9967">OrderDetails</text><line style="stroke:#181818;stroke-width:0.5;" x1="695.19" x2="893.3629" y1="47.15" y2="47.15"/><ellipse cx="705.19" cy="60.7984" fill="#84BE84" rx="3" ry="3" style="stroke:#038048;stroke-width:1.0;"/><text fill="#000000" font-family="sans-serif" font-size="14" lengthAdjust="spacing" textLength="161.499" x="714.19" y="64.1451">OrderDetailID: INT (PK)</text><line style="stroke:#181818;stroke-width:1.0;" x1="695.19" x2="893.3629" y1="71.4469" y2="71.4469"/><text fill="#000000" font-family="sans-serif" font-size="14" lengthAdjust="spacing" textLength="119.8682" x="700.19" y="88.442">OrderID: INT (FK)</text><text fill="#000000" font-family="sans-serif" font-size="14" lengthAdjust="spacing" textLength="133.5469" x="700.19" y="104.7389">ProductID: INT (FK)</text><text fill="#000000" font-family="sans-serif" font-size="14" lengthAdjust="spacing" textLength="92.8184" x="700.19" y="121.0357">Quantity: INT</text><text fill="#000000" font-family="sans-serif" font-size="14" lengthAdjust="spacing" textLength="181.5967" x="700.19" y="137.3326">UnitPrice: DECIMAL(10, 2)</text><text fill="#000000" font-family="sans-serif" font-size="14" lengthAdjust="spacing" textLength="188.1729" x="700.19" y="153.6295">TotalPrice: DECIMAL(10, 2)</text></g><!--class i--><g id="elem_i"><rect codeLine="72" fill="#F1F1F1" height="80.5938" id="i" rx="2.5" ry="2.5" style="stroke:#181818;stroke-width:0.5;" width="186.0703" x="473.24" y="47.74"/><ellipse cx="528.5906" cy="63.74" fill="#ADD1B2" rx="11" ry="11" style="stroke:#181818;stroke-width:1.0;"/><path d="M532.7,69.74 L524.9812,69.74 L524.9812,57.3494 L532.7,57.3494 L532.7,59.5056 L527.4343,59.5056 L527.4343,62.1775 L532.2,62.1775 L532.2,64.3338 L527.4343,64.3338 L527.4343,67.5838 L532.7,67.5838 L532.7,69.74 Z " fill="#000000"/><text fill="#000000" font-family="sans-serif" font-size="14" lengthAdjust="spacing" textLength="66.8691" x="549.0906" y="68.5867">Inventory</text><line style="stroke:#181818;stroke-width:0.5;" x1="474.24" x2="658.3103" y1="79.74" y2="79.74"/><ellipse cx="484.24" cy="93.3884" fill="#84BE84" rx="3" ry="3" style="stroke:#038048;stroke-width:1.0;"/><text fill="#000000" font-family="sans-serif" font-size="14" lengthAdjust="spacing" textLength="160.0703" x="493.24" y="96.7351">ProductID: INT (PK, FK)</text><line style="stroke:#181818;stroke-width:1.0;" x1="474.24" x2="658.3103" y1="104.0369" y2="104.0369"/><text fill="#000000" font-family="sans-serif" font-size="14" lengthAdjust="spacing" textLength="144.5664" x="479.24" y="121.032">QuantityInStock: INT</text></g><!--class con--><g id="elem_con"><rect codeLine="78" fill="#F1F1F1" height="145.7813" id="con" rx="2.5" ry="2.5" style="stroke:#181818;stroke-width:0.5;" width="198.9971" x="238.77" y="15.15"/><ellipse cx="283.9863" cy="31.15" fill="#ADD1B2" rx="11" ry="11" style="stroke:#181818;stroke-width:1.0;"/><path d="M288.0957,37.15 L280.3769,37.15 L280.3769,24.7594 L288.0957,24.7594 L288.0957,26.9156 L282.8301,26.9156 L282.8301,29.5875 L287.5957,29.5875 L287.5957,31.7437 L282.8301,31.7437 L282.8301,34.9937 L288.0957,34.9937 L288.0957,37.15 Z " fill="#000000"/><text fill="#000000" font-family="sans-serif" font-size="14" lengthAdjust="spacing" textLength="100.0645" x="304.4863" y="35.9967">Consignments</text><line style="stroke:#181818;stroke-width:0.5;" x1="239.77" x2="436.7671" y1="47.15" y2="47.15"/><ellipse cx="249.77" cy="60.7984" fill="#84BE84" rx="3" ry="3" style="stroke:#038048;stroke-width:1.0;"/><text fill="#000000" font-family="sans-serif" font-size="14" lengthAdjust="spacing" textLength="172.9971" x="258.77" y="64.1451">ConsignmentID: INT (PK)</text><line style="stroke:#181818;stroke-width:1.0;" x1="239.77" x2="436.7671" y1="71.4469" y2="71.4469"/><text fill="#000000" font-family="sans-serif" font-size="14" lengthAdjust="spacing" textLength="137.5186" x="244.77" y="88.442">SupplierID: INT (FK)</text><text fill="#000000" font-family="sans-serif" font-size="14" lengthAdjust="spacing" textLength="133.5469" x="244.77" y="104.7389">ProductID: INT (FK)</text><text fill="#000000" font-family="sans-serif" font-size="14" lengthAdjust="spacing" textLength="173.1543" x="244.77" y="121.0357">ConsignmentDate: DATE</text><text fill="#000000" font-family="sans-serif" font-size="14" lengthAdjust="spacing" textLength="92.8184" x="244.77" y="137.3326">Quantity: INT</text><text fill="#000000" font-family="sans-serif" font-size="14" lengthAdjust="spacing" textLength="151.0059" x="244.77" y="153.6295">Status: VARCHAR(50)</text></g><!--class pro--><g id="elem_pro"><rect codeLine="88" fill="#F1F1F1" height="162.0781" id="pro" rx="2.5" ry="2.5" style="stroke:#181818;stroke-width:0.5;" width="196.543" x="7" y="7"/><ellipse cx="55.8633" cy="23" fill="#ADD1B2" rx="11" ry="11" style="stroke:#181818;stroke-width:1.0;"/><path d="M59.9727,29 L52.2539,29 L52.2539,16.6094 L59.9727,16.6094 L59.9727,18.7656 L54.707,18.7656 L54.707,21.4375 L59.4727,21.4375 L59.4727,23.5938 L54.707,23.5938 L54.707,26.8438 L59.9727,26.8438 L59.9727,29 Z " fill="#000000"/><text fill="#000000" font-family="sans-serif" font-size="14" lengthAdjust="spacing" textLength="90.3164" x="76.3633" y="27.8467">Procurement</text><line style="stroke:#181818;stroke-width:0.5;" x1="8" x2="202.543" y1="39" y2="39"/><ellipse cx="18" cy="52.6484" fill="#84BE84" rx="3" ry="3" style="stroke:#038048;stroke-width:1.0;"/><text fill="#000000" font-family="sans-serif" font-size="14" lengthAdjust="spacing" textLength="170.543" x="27" y="55.9951">ProcurementID: INT (PK)</text><line style="stroke:#181818;stroke-width:1.0;" x1="8" x2="202.543" y1="63.2969" y2="63.2969"/><text fill="#000000" font-family="sans-serif" font-size="14" lengthAdjust="spacing" textLength="133.5469" x="13" y="80.292">ProductID: INT (FK)</text><text fill="#000000" font-family="sans-serif" font-size="14" lengthAdjust="spacing" textLength="137.5186" x="13" y="96.5889">SupplierID: INT (FK)</text><text fill="#000000" font-family="sans-serif" font-size="14" lengthAdjust="spacing" textLength="120.415" x="13" y="112.8857">OrderDate: DATE</text><text fill="#000000" font-family="sans-serif" font-size="14" lengthAdjust="spacing" textLength="138.4961" x="13" y="129.1826">DeliveryDate: DATE</text><text fill="#000000" font-family="sans-serif" font-size="14" lengthAdjust="spacing" textLength="92.8184" x="13" y="145.4795">Quantity: INT</text><text fill="#000000" font-family="sans-serif" font-size="14" lengthAdjust="spacing" textLength="151.0059" x="13" y="161.7764">Status: VARCHAR(50)</text></g><!--class d--><g id="elem_d"><rect codeLine="99" fill="#F1F1F1" height="145.7813" id="d" rx="2.5" ry="2.5" style="stroke:#181818;stroke-width:0.5;" width="457.833" x="1061.35" y="237.23"/><ellipse cx="1251.6386" cy="253.23" fill="#ADD1B2" rx="11" ry="11" style="stroke:#181818;stroke-width:1.0;"/><path d="M1255.7479,259.23 L1248.0292,259.23 L1248.0292,246.8394 L1255.7479,246.8394 L1255.7479,248.9956 L1250.4823,248.9956 L1250.4823,251.6675 L1255.2479,251.6675 L1255.2479,253.8237 L1250.4823,253.8237 L1250.4823,257.0737 L1255.7479,257.0737 L1255.7479,259.23 Z " fill="#000000"/><text fill="#000000" font-family="sans-serif" font-size="14" lengthAdjust="spacing" textLength="68.7559" x="1272.1386" y="258.0767">Discounts</text><line style="stroke:#181818;stroke-width:0.5;" x1="1062.35" x2="1518.183" y1="269.23" y2="269.23"/><ellipse cx="1072.35" cy="282.8784" fill="#84BE84" rx="3" ry="3" style="stroke:#038048;stroke-width:1.0;"/><text fill="#000000" font-family="sans-serif" font-size="14" lengthAdjust="spacing" textLength="141.6885" x="1081.35" y="286.2251">DiscountID: INT (PK)</text><line style="stroke:#181818;stroke-width:1.0;" x1="1062.35" x2="1518.183" y1="293.5269" y2="293.5269"/><text fill="#000000" font-family="sans-serif" font-size="14" lengthAdjust="spacing" textLength="218.0664" x="1067.35" y="310.522">DiscountName: VARCHAR(255)</text><text fill="#000000" font-family="sans-serif" font-size="14" lengthAdjust="spacing" textLength="445.833" x="1067.35" y="326.8189">DiscountType: VARCHAR(50) -- e.g., 'Percentage', 'Flat Amount'</text><text fill="#000000" font-family="sans-serif" font-size="14" lengthAdjust="spacing" textLength="219.6934" x="1067.35" y="343.1157">DiscountValue: DECIMAL(10, 2)</text><text fill="#000000" font-family="sans-serif" font-size="14" lengthAdjust="spacing" textLength="114.584" x="1067.35" y="359.4126">StartDate: DATE</text><text fill="#000000" font-family="sans-serif" font-size="14" lengthAdjust="spacing" textLength="106.9893" x="1067.35" y="375.7095">EndDate: DATE</text></g><!--class pd--><g id="elem_pd"><rect codeLine="109" fill="#F1F1F1" height="96.8906" id="pd" rx="2.5" ry="2.5" style="stroke:#181818;stroke-width:0.5;" width="221.3984" x="929.57" y="39.59"/><ellipse cx="974.7863" cy="55.59" fill="#ADD1B2" rx="11" ry="11" style="stroke:#181818;stroke-width:1.0;"/><path d="M978.8957,61.59 L971.1769,61.59 L971.1769,49.1994 L978.8957,49.1994 L978.8957,51.3556 L973.6301,51.3556 L973.6301,54.0275 L978.3957,54.0275 L978.3957,56.1838 L973.6301,56.1838 L973.6301,59.4338 L978.8957,59.4338 L978.8957,61.59 Z " fill="#000000"/><text fill="#000000" font-family="sans-serif" font-size="14" lengthAdjust="spacing" textLength="122.4658" x="995.2863" y="60.4367">ProductDiscounts</text><line style="stroke:#181818;stroke-width:0.5;" x1="930.57" x2="1149.9684" y1="71.59" y2="71.59"/><ellipse cx="940.57" cy="85.2384" fill="#84BE84" rx="3" ry="3" style="stroke:#038048;stroke-width:1.0;"/><text fill="#000000" font-family="sans-serif" font-size="14" lengthAdjust="spacing" textLength="195.3984" x="949.57" y="88.5851">ProductDiscountID: INT (PK)</text><line style="stroke:#181818;stroke-width:1.0;" x1="930.57" x2="1149.9684" y1="95.8869" y2="95.8869"/><text fill="#000000" font-family="sans-serif" font-size="14" lengthAdjust="spacing" textLength="133.5469" x="935.57" y="112.882">ProductID: INT (FK)</text><text fill="#000000" font-family="sans-serif" font-size="14" lengthAdjust="spacing" textLength="141.2988" x="935.57" y="129.1789">DiscountID: INT (FK)</text></g><!--class odc--><g id="elem_odc"><rect codeLine="116" fill="#F1F1F1" height="96.8906" id="odc" rx="2.5" ry="2.5" style="stroke:#181818;stroke-width:0.5;" width="207.7197" x="1186.41" y="39.59"/><ellipse cx="1231.6263" cy="55.59" fill="#ADD1B2" rx="11" ry="11" style="stroke:#181818;stroke-width:1.0;"/><path d="M1235.7357,61.59 L1228.0169,61.59 L1228.0169,49.1994 L1235.7357,49.1994 L1235.7357,51.3556 L1230.4701,51.3556 L1230.4701,54.0275 L1235.2357,54.0275 L1235.2357,56.1838 L1230.4701,56.1838 L1230.4701,59.4338 L1235.7357,59.4338 L1235.7357,61.59 Z " fill="#000000"/><text fill="#000000" font-family="sans-serif" font-size="14" lengthAdjust="spacing" textLength="108.7871" x="1252.1263" y="60.4367">OrderDiscounts</text><line style="stroke:#181818;stroke-width:0.5;" x1="1187.41" x2="1393.1297" y1="71.59" y2="71.59"/><ellipse cx="1197.41" cy="85.2384" fill="#84BE84" rx="3" ry="3" style="stroke:#038048;stroke-width:1.0;"/><text fill="#000000" font-family="sans-serif" font-size="14" lengthAdjust="spacing" textLength="181.7197" x="1206.41" y="88.5851">OrderDiscountID: INT (PK)</text><line style="stroke:#181818;stroke-width:1.0;" x1="1187.41" x2="1393.1297" y1="95.8869" y2="95.8869"/><text fill="#000000" font-family="sans-serif" font-size="14" lengthAdjust="spacing" textLength="119.8682" x="1192.41" y="112.882">OrderID: INT (FK)</text><text fill="#000000" font-family="sans-serif" font-size="14" lengthAdjust="spacing" textLength="141.2988" x="1192.41" y="129.1789">DiscountID: INT (FK)</text></g><!--link p to pc--><g id="link_p_pc"><path codeLine="123" d="M536.5459,397.2109 C560.4359,422.8309 575.1951,438.6582 596.2251,461.2182 " fill="none" id="p-pc" style="stroke:#181818;stroke-width:1.0;"/><line style="stroke:#181818;stroke-width:1.0;" x1="536.5459" x2="526.7018" y1="397.2109" y2="395.4519"/><line style="stroke:#181818;stroke-width:1.0;" x1="536.5459" x2="535.4782" y1="397.2109" y2="387.2681"/><line style="stroke:#181818;stroke-width:1.0;" x1="536.5459" x2="531.09" y1="397.2109" y2="391.36"/><line style="stroke:#181818;stroke-width:1.0;" x1="534.9844" x2="540.8353" y1="401.4016" y2="395.9458"/><line style="stroke:#181818;stroke-width:1.0;" x1="601.8784" x2="596.0266" y1="461.4166" y2="466.8716"/><line style="stroke:#181818;stroke-width:1.0;" x1="599.8328" x2="593.981" y1="459.2222" y2="464.6771"/><line style="stroke:#181818;stroke-width:1.0;" x1="596.2251" x2="601.68" y1="461.2182" y2="467.07"/></g><!--link p to pt--><g id="link_p_pt"><path codeLine="124" d="M429.0973,399.0031 C421.1773,424.6231 417.3915,436.8665 410.4215,459.4265 " fill="none" id="p-pt" style="stroke:#181818;stroke-width:1.0;"/><line style="stroke:#181818;stroke-width:1.0;" x1="429.0973" x2="425.7277" y1="399.0031" y2="389.5879"/><line style="stroke:#181818;stroke-width:1.0;" x1="429.0973" x2="437.1923" y1="399.0031" y2="393.1321"/><line style="stroke:#181818;stroke-width:1.0;" x1="429.0973" x2="431.46" y1="399.0031" y2="391.36"/><line style="stroke:#181818;stroke-width:1.0;" x1="424.685" x2="432.3281" y1="399.7325" y2="402.0953"/><line style="stroke:#181818;stroke-width:1.0;" x1="413.0625" x2="405.419" y1="464.429" y2="462.0675"/><line style="stroke:#181818;stroke-width:1.0;" x1="413.9481" x2="406.3045" y1="461.5627" y2="459.2012"/><line style="stroke:#181818;stroke-width:1.0;" x1="410.4215" x2="408.06" y1="459.4265" y2="467.07"/></g><!--link p to s--><g id="link_p_s"><path codeLine="125" d="M337.969,387.8947 C304.219,409.7947 280.8109,424.9852 247.9409,446.3152 " fill="none" id="p-s" style="stroke:#181818;stroke-width:1.0;"/><line style="stroke:#181818;stroke-width:1.0;" x1="337.969" x2="341.414" y1="387.8947" y2="378.5068"/><line style="stroke:#181818;stroke-width:1.0;" x1="337.969" x2="347.946" y1="387.8947" y2="388.5732"/><line style="stroke:#181818;stroke-width:1.0;" x1="337.969" x2="344.68" y1="387.8947" y2="383.54"/><line style="stroke:#181818;stroke-width:1.0;" x1="334.114" x2="338.4686" y1="385.6279" y2="392.3388"/><line style="stroke:#181818;stroke-width:1.0;" x1="246.7628" x2="242.408" y1="451.848" y2="445.1372"/><line style="stroke:#181818;stroke-width:1.0;" x1="249.2794" x2="244.9246" y1="450.215" y2="443.5041"/><line style="stroke:#181818;stroke-width:1.0;" x1="247.9409" x2="241.23" y1="446.3152" y2="450.67"/></g><!--link o to c--><g id="link_o_c"><path codeLine="126" d="M1008.3619,380.1074 C1040.4419,404.1474 1064.0564,421.8448 1096.1464,445.8748 " fill="none" id="o-c" style="stroke:#181818;stroke-width:1.0;"/><line style="stroke:#181818;stroke-width:1.0;" x1="1008.3619" x2="998.3619" y1="380.1074" y2="380.1114"/><line style="stroke:#181818;stroke-width:1.0;" x1="1008.3619" x2="1005.5581" y1="380.1074" y2="370.5086"/><line style="stroke:#181818;stroke-width:1.0;" x1="1008.3619" x2="1001.96" y1="380.1074" y2="375.31"/><line style="stroke:#181818;stroke-width:1.0;" x1="1007.5637" x2="1012.3611" y1="384.5078" y2="378.1058"/><line style="stroke:#181818;stroke-width:1.0;" x1="1101.7458" x2="1096.9506" y1="445.0706" y2="451.4742"/><line style="stroke:#181818;stroke-width:1.0;" x1="1099.3445" x2="1094.5493" y1="443.2724" y2="449.676"/><line style="stroke:#181818;stroke-width:1.0;" x1="1096.1464" x2="1102.55" y1="445.8748" y2="450.67"/></g><!--link o to e--><g id="link_o_e"><path codeLine="127" d="M916.27,383.31 C916.27,407.35 916.27,418.64 916.27,442.67 " fill="none" id="o-e" style="stroke:#181818;stroke-width:1.0;"/><line style="stroke:#181818;stroke-width:1.0;" x1="916.27" x2="910.27" y1="383.31" y2="375.31"/><line style="stroke:#181818;stroke-width:1.0;" x1="916.27" x2="922.27" y1="383.31" y2="375.31"/><line style="stroke:#181818;stroke-width:1.0;" x1="916.27" x2="916.27" y1="383.31" y2="375.31"/><line style="stroke:#181818;stroke-width:1.0;" x1="912.27" x2="920.27" y1="385.31" y2="385.31"/><line style="stroke:#181818;stroke-width:1.0;" x1="920.27" x2="912.27" y1="446.67" y2="446.67"/><line style="stroke:#181818;stroke-width:1.0;" x1="920.27" x2="912.27" y1="443.67" y2="443.67"/><line style="stroke:#181818;stroke-width:1.0;" x1="916.27" x2="916.27" y1="442.67" y2="450.67"/></g><!--link od to o--><g id="link_od_o"><path codeLine="128" d="M838.2686,168.4069 C853.2686,195.4669 862.4337,211.9818 876.9737,238.2318 " fill="none" id="od-o" style="stroke:#181818;stroke-width:1.0;"/><line style="stroke:#181818;stroke-width:1.0;" x1="838.2686" x2="829.1423" y1="168.4069" y2="164.3189"/><line style="stroke:#181818;stroke-width:1.0;" x1="838.2686" x2="839.6377" y1="168.4069" y2="158.5011"/><line style="stroke:#181818;stroke-width:1.0;" x1="838.2686" x2="834.39" y1="168.4069" y2="161.41"/><line style="stroke:#181818;stroke-width:1.0;" x1="835.7397" x2="842.7367" y1="172.0954" y2="168.2169"/><line style="stroke:#181818;stroke-width:1.0;" x1="882.4109" x2="875.4128" y1="239.7928" y2="243.6691"/><line style="stroke:#181818;stroke-width:1.0;" x1="880.9573" x2="873.9591" y1="237.1685" y2="241.0448"/><line style="stroke:#181818;stroke-width:1.0;" x1="876.9737" x2="880.85" y1="238.2318" y2="245.23"/></g><!--link od to p--><g id="link_od_p"><path codeLine="129" d="M687.2609,162.4785 C681.6409,166.2385 682.72,165.49 677.27,169.08 C641.9,192.37 609.7323,213.0055 574.5323,235.2555 " fill="none" id="od-p" style="stroke:#181818;stroke-width:1.0;"/><line style="stroke:#181818;stroke-width:1.0;" x1="687.2609" x2="690.5736" y1="162.4785" y2="153.0432"/><line style="stroke:#181818;stroke-width:1.0;" x1="687.2609" x2="697.2464" y1="162.4785" y2="163.0168"/><line style="stroke:#181818;stroke-width:1.0;" x1="687.2609" x2="693.91" y1="162.4785" y2="158.03"/><line style="stroke:#181818;stroke-width:1.0;" x1="683.3744" x2="687.8229" y1="160.2661" y2="166.9152"/><line style="stroke:#181818;stroke-width:1.0;" x1="573.2884" x2="569.0139" y1="240.7739" y2="234.0116"/><line style="stroke:#181818;stroke-width:1.0;" x1="575.8243" x2="571.5498" y1="239.171" y2="232.4087"/><line style="stroke:#181818;stroke-width:1.0;" x1="574.5323" x2="567.77" y1="235.2555" y2="239.53"/></g><!--link i to p--><g id="link_i_p"><path codeLine="130" d="M542.9023,135.7954 C528.9823,163.6354 517.0377,187.5546 499.9877,221.6546 " fill="none" id="i-p" style="stroke:#181818;stroke-width:1.0;"/><line style="stroke:#181818;stroke-width:1.0;" x1="542.9023" x2="541.1134" y1="135.7954" y2="125.9567"/><line style="stroke:#181818;stroke-width:1.0;" x1="542.9023" x2="551.8466" y1="135.7954" y2="131.3233"/><line style="stroke:#181818;stroke-width:1.0;" x1="542.9023" x2="546.48" y1="135.7954" y2="128.64"/><line style="stroke:#181818;stroke-width:1.0;" x1="538.4302" x2="545.5856" y1="135.7954" y2="139.3731"/><line style="stroke:#181818;stroke-width:1.0;" x1="501.7766" x2="494.6211" y1="227.0211" y2="223.4434"/><line style="stroke:#181818;stroke-width:1.0;" x1="503.1182" x2="495.9628" y1="224.3379" y2="220.7602"/><line style="stroke:#181818;stroke-width:1.0;" x1="499.9877" x2="496.41" y1="221.6546" y2="228.81"/></g><!--link con to p--><g id="link_con_p"><path codeLine="131" d="M380.853,168.459 C392.413,189.999 397.5802,199.6393 409.3902,221.6693 " fill="none" id="con-p" style="stroke:#181818;stroke-width:1.0;"/><line style="stroke:#181818;stroke-width:1.0;" x1="380.853" x2="371.7832" y1="168.459" y2="164.2473"/><line style="stroke:#181818;stroke-width:1.0;" x1="380.853" x2="382.3568" y1="168.459" y2="158.5727"/><line style="stroke:#181818;stroke-width:1.0;" x1="380.853" x2="377.07" y1="168.459" y2="161.41"/><line style="stroke:#181818;stroke-width:1.0;" x1="378.2743" x2="385.3233" y1="172.1128" y2="168.3298"/><line style="stroke:#181818;stroke-width:1.0;" x1="414.8055" x2="407.7547" y1="223.3047" y2="227.0845"/><line style="stroke:#181818;stroke-width:1.0;" x1="413.388" x2="406.3373" y1="220.6607" y2="224.4405"/><line style="stroke:#181818;stroke-width:1.0;" x1="409.3902" x2="413.17" y1="221.6693" y2="228.72"/></g><!--link con to s--><g id="link_con_s"><path codeLine="132" d="M301.6755,168.5474 C264.3255,249.7074 210.9447,365.6827 175.1747,443.4027 " fill="none" id="con-s" style="stroke:#181818;stroke-width:1.0;"/><line style="stroke:#181818;stroke-width:1.0;" x1="301.6755" x2="299.5695" y1="168.5474" y2="158.7717"/><line style="stroke:#181818;stroke-width:1.0;" x1="301.6755" x2="310.4705" y1="168.5474" y2="163.7883"/><line style="stroke:#181818;stroke-width:1.0;" x1="301.6755" x2="305.02" y1="168.5474" y2="161.28"/><line style="stroke:#181818;stroke-width:1.0;" x1="297.2057" x2="304.4731" y1="168.692" y2="172.0364"/><line style="stroke:#181818;stroke-width:1.0;" x1="177.136" x2="169.8687" y1="448.7087" y2="445.364"/><line style="stroke:#181818;stroke-width:1.0;" x1="178.3902" x2="171.123" y1="445.9835" y2="442.6388"/><line style="stroke:#181818;stroke-width:1.0;" x1="175.1747" x2="171.83" y1="443.4027" y2="450.67"/></g><!--link pro to p--><g id="link_pro_p"><path codeLine="133" d="M210.6787,162.239 C216.4887,166.089 215.61,165.44 221.27,169.08 C261.04,194.61 298.5038,217.3681 337.8738,240.6481 " fill="none" id="pro-p" style="stroke:#181818;stroke-width:1.0;"/><line style="stroke:#181818;stroke-width:1.0;" x1="210.6787" x2="200.6957" y1="162.239" y2="162.8216"/><line style="stroke:#181818;stroke-width:1.0;" x1="210.6787" x2="207.3243" y1="162.239" y2="152.8184"/><line style="stroke:#181818;stroke-width:1.0;" x1="210.6787" x2="204.01" y1="162.239" y2="157.82"/><line style="stroke:#181818;stroke-width:1.0;" x1="210.1364" x2="214.5554" y1="166.6782" y2="160.0094"/><line style="stroke:#181818;stroke-width:1.0;" x1="343.3529" x2="339.281" y1="239.241" y2="246.1271"/><line style="stroke:#181818;stroke-width:1.0;" x1="340.7705" x2="336.6986" y1="237.714" y2="244.6002"/><line style="stroke:#181818;stroke-width:1.0;" x1="337.8738" x2="344.76" y1="240.6481" y2="244.72"/></g><!--link pro to s--><g id="link_pro_s"><path codeLine="134" d="M112.9426,177.36 C120.0326,258.95 129.4876,367.74 136.0176,442.9 " fill="none" id="pro-s" style="stroke:#181818;stroke-width:1.0;"/><line style="stroke:#181818;stroke-width:1.0;" x1="112.9426" x2="106.2725" y1="177.36" y2="169.9094"/><line style="stroke:#181818;stroke-width:1.0;" x1="112.9426" x2="118.2275" y1="177.36" y2="168.8706"/><line style="stroke:#181818;stroke-width:1.0;" x1="112.9426" x2="112.25" y1="177.36" y2="169.39"/><line style="stroke:#181818;stroke-width:1.0;" x1="109.1307" x2="117.1007" y1="179.6987" y2="179.0062"/><line style="stroke:#181818;stroke-width:1.0;" x1="140.3488" x2="132.3788" y1="446.5388" y2="447.2312"/><line style="stroke:#181818;stroke-width:1.0;" x1="140.0891" x2="132.1191" y1="443.55" y2="444.2425"/><line style="stroke:#181818;stroke-width:1.0;" x1="136.0176" x2="136.71" y1="442.9" y2="450.87"/></g><!--link pd to p--><g id="link_pd_p"><path codeLine="135" d="M964.2272,141.1358 C945.6772,152.6758 932.06,160.04 912.27,169.08 C799.08,220.77 669.44,258.0751 575.24,281.6851 " fill="none" id="pd-p" style="stroke:#181818;stroke-width:1.0;"/><line style="stroke:#181818;stroke-width:1.0;" x1="964.2272" x2="967.8506" y1="141.1358" y2="131.8154"/><line style="stroke:#181818;stroke-width:1.0;" x1="964.2272" x2="974.1894" y1="141.1358" y2="142.0046"/><line style="stroke:#181818;stroke-width:1.0;" x1="964.2272" x2="971.02" y1="141.1358" y2="136.91"/><line style="stroke:#181818;stroke-width:1.0;" x1="960.4161" x2="964.6419" y1="138.7959" y2="145.5887"/><line style="stroke:#181818;stroke-width:1.0;" x1="572.3325" x2="570.3875" y1="286.5375" y2="278.7775"/><line style="stroke:#181818;stroke-width:1.0;" x1="575.2424" x2="573.2975" y1="285.8082" y2="278.0482"/><line style="stroke:#181818;stroke-width:1.0;" x1="575.24" x2="567.48" y1="281.6851" y2="283.63"/></g><!--link pd to d--><g id="link_pd_d"><path codeLine="136" d="M1100.5239,142.0771 C1133.6939,171.2871 1164.7756,198.6335 1202.0756,231.4735 " fill="none" id="pd-d" style="stroke:#181818;stroke-width:1.0;"/><line style="stroke:#181818;stroke-width:1.0;" x1="1100.5239" x2="1090.5547" y1="142.0771" y2="141.2929"/><line style="stroke:#181818;stroke-width:1.0;" x1="1100.5239" x2="1098.4853" y1="142.0771" y2="132.2871"/><line style="stroke:#181818;stroke-width:1.0;" x1="1100.5239" x2="1094.52" y1="142.0771" y2="136.79"/><line style="stroke:#181818;stroke-width:1.0;" x1="1099.3813" x2="1104.6684" y1="146.4008" y2="140.3969"/><line style="stroke:#181818;stroke-width:1.0;" x1="1207.721" x2="1202.4345" y1="231.1145" y2="237.119"/><line style="stroke:#181818;stroke-width:1.0;" x1="1205.4694" x2="1200.1829" y1="229.1321" y2="235.1366"/><line style="stroke:#181818;stroke-width:1.0;" x1="1202.0756" x2="1208.08" y1="231.4735" y2="236.76"/></g><!--link odc to o--><g id="link_odc_o"><path codeLine="137" d="M1213.8951,141.334 C1197.0251,152.314 1185.57,159.27 1168.27,169.08 C1115.01,199.27 1097.86,199.47 1044.27,229.08 C1035.21,234.08 1032.7802,235.3679 1023.5102,240.8679 " fill="none" id="odc-o" style="stroke:#181818;stroke-width:1.0;"/><line style="stroke:#181818;stroke-width:1.0;" x1="1213.8951" x2="1217.327" y1="141.334" y2="131.9413"/><line style="stroke:#181818;stroke-width:1.0;" x1="1213.8951" x2="1223.873" y1="141.334" y2="141.9987"/><line style="stroke:#181818;stroke-width:1.0;" x1="1213.8951" x2="1220.6" y1="141.334" y2="136.97"/><line style="stroke:#181818;stroke-width:1.0;" x1="1210.0369" x2="1214.4008" y1="139.0725" y2="145.7774"/><line style="stroke:#181818;stroke-width:1.0;" x1="1022.1111" x2="1018.029" y1="246.349" y2="239.4689"/><line style="stroke:#181818;stroke-width:1.0;" x1="1024.6912" x2="1020.6091" y1="244.8183" y2="237.9381"/><line style="stroke:#181818;stroke-width:1.0;" x1="1023.5102" x2="1016.63" y1="240.8679" y2="244.95"/></g><!--link odc to d--><g id="link_odc_d"><path codeLine="138" d="M1290.27,144.79 C1290.27,174 1290.27,195.92 1290.27,228.76 " fill="none" id="odc-d" style="stroke:#181818;stroke-width:1.0;"/><line style="stroke:#181818;stroke-width:1.0;" x1="1290.27" x2="1284.27" y1="144.79" y2="136.79"/><line style="stroke:#181818;stroke-width:1.0;" x1="1290.27" x2="1296.27" y1="144.79" y2="136.79"/><line style="stroke:#181818;stroke-width:1.0;" x1="1290.27" x2="1290.27" y1="144.79" y2="136.79"/><line style="stroke:#181818;stroke-width:1.0;" x1="1286.27" x2="1294.27" y1="146.79" y2="146.79"/><line style="stroke:#181818;stroke-width:1.0;" x1="1294.27" x2="1286.27" y1="232.76" y2="232.76"/><line style="stroke:#181818;stroke-width:1.0;" x1="1294.27" x2="1286.27" y1="229.76" y2="229.76"/><line style="stroke:#181818;stroke-width:1.0;" x1="1290.27" x2="1290.27" y1="228.76" y2="236.76"/></g><!--SRC=[lLRVRzCm47xFNs7jfKMqqvZKbxv5JIeYe8IjJBmQnwei4ZkodKaLtV-Ea_WQEwdf18Y-z7nVx-wxdnlbckaZkicbA1gYDrZJWv2CgXk45Qe9-XaXytbhWMEMh56sswDv_k5DXooNtHVWErpHDNgA7pRluuVv_MhL_ogXYaXMQoRu6ktJR_le9OgeZVtOr7N9gEnZAWW9wb18m0CXDu9hJFIkgRvJEU2hknvEAypA2sPnKKYgr9IbhP0j392qsX172uSeZekwjTQJr07uofdE9IF6Mv9kia_nn_cxkmMwjsPQa1-THVVS7slgUPXcq_x4PgGX9Szib4-B_KcBDutIee8M3rDbrS6filX_Qd5QrQKuKbiH2Yn17M89-BzbcGl5-c9wa4FtiooWeWAuThfhvPoCrIH303ftYHbJCs_nFkrdG6XSnfLek9vCuPXTGhN9pd8iF98z5ABgvm5qnji6-YyDxg8Ei__xHUbIk0mx6MJysOXcFplwBBpo2xJrsGEVZ3ihwQw3u8eTU6NUTYC4F-_4W5sxVA-kZ-DprCnfvHurretovzG_7AIHj7NLtmqfdC80TEKUllxWNHh0X9RicShZtwQIC4NQAUvRS9vEK8To03nq1otSdaeljB57zFPmkq2pd4fYME03dPdNjiGQzGiryrmyuR89NNeinwrCUU5efhVUJxSkHlDyBUrGwoPsexyqVGUzsA8W_Ycu4lhoCGW5hj7BQRaydSn_Buwi1rb50aGoY3Go1yhAmf7hY0rYkwUN7Yfgz-2CE0-3EAu6kOZQAZZnpe_Y5m00]--></g></svg>